<?xml version="1.0" encoding="utf-8"?>
<!-- Generator: Adobe Illustrator 25.2.3, SVG Export Plug-In . SVG Version: 6.00 Build 0)  -->
<svg version="1.1" id="Layer_1" xmlns="http://www.w3.org/2000/svg" xmlns:xlink="http://www.w3.org/1999/xlink" x="0px" y="0px"
	 viewBox="0 0 154.3 154.3" style="enable-background:new 0 0 154.3 154.3;" xml:space="preserve">
<style type="text/css">
	.st0{display:none;}
	.st1{display:inline;}
	.st2{fill:url(#SVGID_1_);}
	.st3{fill:#F7931E;}
	.st4{fill:#272525;}
	.st5{opacity:0.4;fill:#FFFFFF;enable-background:new    ;}
	.st6{opacity:0.5;fill:#FFFFFF;enable-background:new    ;}
</style>
<g id="Layer_1_1_" class="st0">
	<g id="_x37_scCgX_1_" class="st1">
		
			<image style="overflow:visible;enable-background:new    ;" width="226" height="227" id="_x37_scCgX_3_" xlink:href="B1A232A3277AA41E.jpeg"  transform="matrix(0.7242 0 0 0.7242 -4.2113 -4.2133)">
		</image>
	</g>
</g>
<g id="Layer_7">
</g>
<g id="Layer_5">
</g>
<g id="Layer_2_1_">
	
		<radialGradient id="SVGID_1_" cx="77.16" cy="79.82" r="77.16" gradientTransform="matrix(1 0 0 -1 0 156.98)" gradientUnits="userSpaceOnUse">
		<stop  offset="0" style="stop-color:#00FFFF"/>
		<stop  offset="0.875" style="stop-color:#29ABE2"/>
		<stop  offset="1" style="stop-color:#0071BC"/>
	</radialGradient>
	<circle class="st2" cx="77.2" cy="77.2" r="77.2"/>
</g>
<g id="Layer_4">
	<g>
		<g>
			<path class="st3" d="M32.7,54.5v9.3h7.6v7.8h-7.6v12.5c0,4.1,1.1,6,4.2,6c1.5,0,2.2-0.1,3.2-0.3l0.1,8.1
				c-1.3,0.5-3.9,0.9-6.9,0.9c-3.4,0-6.3-1.2-8-2.9c-2-2-2.9-5.3-2.9-10.2V71.6h-4.5v-7.8h4.5v-6.4L32.7,54.5z"/>
			<path class="st4" d="M32.7,54.5v9.3h7.6v7.8h-7.6v12.5c0,4.1,1.1,6,4.2,6c1.5,0,2.2-0.1,3.2-0.3l0.1,8.1
				c-1.3,0.5-3.9,0.9-6.9,0.9c-3.4,0-6.3-1.2-8-2.9c-2-2-2.9-5.3-2.9-10.2V71.6h-4.5v-7.8h4.5v-6.4L32.7,54.5 M32.7,53.7
				c-0.1,0-0.1,0-0.2,0l-10.4,2.9c-0.3,0.1-0.5,0.4-0.5,0.7v5.7h-3.8c-0.4,0-0.8,0.3-0.8,0.8v7.8c0,0.4,0.3,0.8,0.8,0.8h3.8v13.3
				c0,5,1,8.5,3.2,10.7c2,2,5.2,3.2,8.6,3.2c2.8,0,5.5-0.4,7.1-1c0.3-0.1,0.5-0.4,0.5-0.7l-0.1-8.1c0-0.2-0.1-0.4-0.3-0.6
				c-0.1-0.1-0.3-0.2-0.5-0.2c-0.1,0-0.1,0-0.2,0c-0.9,0.2-1.6,0.3-3,0.3c-2.2,0-3.4-0.9-3.4-5.3V72.4h6.9c0.4,0,0.8-0.3,0.8-0.8
				v-7.8c0-0.4-0.3-0.8-0.8-0.8h-6.9v-8.6c0-0.2-0.1-0.4-0.3-0.6C33.1,53.8,32.9,53.7,32.7,53.7L32.7,53.7z"/>
		</g>
		<g>
			<path class="st3" d="M46.5,75.3c0-4.5-0.1-8.3-0.3-11.5h9.2l0.5,4.8h0.1C58.6,65,62.6,63,67.5,63c7.5,0,14.2,6.5,14.2,17.4
				c0,12.5-7.9,18.3-15.5,18.3c-4.1,0-7.3-1.7-8.9-3.9h-0.1v17H46.5V75.3z M57.2,83.3c0,0.8,0.1,1.5,0.2,2.2c0.7,2.9,3.2,5,6.2,5
				c4.6,0,7.3-3.8,7.3-9.7c0-5.5-2.4-9.6-7.2-9.6c-3,0-5.7,2.2-6.4,5.4c-0.1,0.6-0.2,1.3-0.2,1.9V83.3z"/>
			<path class="st4" d="M67.5,63c7.5,0,14.2,6.5,14.2,17.4c0,12.5-7.9,18.3-15.5,18.3c-4.1,0-7.3-1.7-8.9-3.9h-0.1v17H46.5V75.3
				c0-4.5-0.1-8.3-0.3-11.5h9.2l0.5,4.8h0.1C58.6,65,62.6,63,67.5,63 M63.6,90.6c4.6,0,7.3-3.8,7.3-9.7c0-5.5-2.4-9.6-7.2-9.6
				c-3,0-5.7,2.2-6.4,5.4c-0.1,0.6-0.2,1.3-0.2,1.9v4.7c0,0.8,0.1,1.5,0.2,2.2C58.1,88.4,60.5,90.6,63.6,90.6 M67.5,62.3
				c-4.5,0-8.3,1.6-11,4.5l-0.3-3.1c0-0.4-0.4-0.7-0.8-0.7h-9.2c-0.2,0-0.4,0.1-0.5,0.2s-0.2,0.3-0.2,0.6c0.2,3.3,0.3,7,0.3,11.4
				v36.6c0,0.4,0.3,0.8,0.8,0.8h10.6c0.4,0,0.8-0.3,0.8-0.8V96.7c2,1.8,5,2.9,8.3,2.9c7.8,0,16.3-6,16.3-19.1
				C82.5,68.5,75,62.3,67.5,62.3L67.5,62.3z M63.6,89.9c-2.6,0-4.8-1.8-5.5-4.5c-0.1-0.6-0.2-1.3-0.2-2.1v-4.7
				c0-0.6,0.1-1.2,0.2-1.7c0.6-2.8,3-4.8,5.6-4.8c4.8,0,6.5,4.6,6.5,8.8C70.2,86.5,67.7,89.9,63.6,89.9L63.6,89.9z"/>
		</g>
		<g>
			<path class="st3" d="M95.2,63.8L98,77.9c0.6,3.5,1.3,7.3,1.9,11.2h0.2c0.6-3.8,1.7-7.8,2.4-11.1l3.6-14.1h8.4l3.4,13.7
				c1,3.9,1.9,7.7,2.5,11.6h0.1c0.5-3.8,1.2-7.8,2-11.7l2.9-13.6H136L125.5,98h-9.9l-3.2-12c-0.9-3.4-1.5-6.4-2.2-10.7H110
				c-0.6,4.3-1.3,7.5-2.2,10.6l-3.4,12h-10l-10-34.2H95.2z"/>
			<path class="st4" d="M136,63.8L125.5,98h-9.9l-3.2-12c-0.9-3.4-1.5-6.4-2.2-10.7H110c-0.6,4.3-1.3,7.5-2.2,10.6l-3.4,12h-10
				l-10-34.2h10.8L98,77.9c0.6,3.5,1.3,7.3,1.9,11.2h0.2c0.6-3.8,1.7-7.8,2.4-11.1l3.6-14.1h8.4l3.4,13.7c1,3.9,1.9,7.7,2.5,11.6
				h0.1c0.5-3.8,1.2-7.8,2-11.7l2.9-13.6H136 M136,63.1h-10.4c-0.4,0-0.7,0.2-0.7,0.6L122,77.2c-0.6,2.7-1.1,5.2-1.4,7.7
				c-0.5-2.6-1.1-5.1-1.8-7.6l-3.4-13.7c-0.1-0.3-0.4-0.6-0.7-0.6h-8.4c-0.3,0-0.6,0.2-0.7,0.6l-3.6,14.1c-0.2,0.9-0.4,1.8-0.7,2.8
				c-0.4,1.5-0.8,3.1-1.1,4.8c-0.4-2.2-0.8-4.4-1.1-6.5l-0.2-1l-2.8-14.1c-0.1-0.3-0.4-0.6-0.7-0.6H84.3c-0.2,0-0.5,0.1-0.6,0.3
				s-0.2,0.4-0.1,0.7l10,34.2c0.1,0.3,0.4,0.5,0.7,0.5h10c0.3,0,0.6-0.2,0.7-0.5l3.4-12c0.6-2.3,1.1-4.5,1.5-6.8
				c0.5,2.5,1,4.6,1.6,6.9l3.2,12c0.1,0.3,0.4,0.6,0.7,0.6h9.9c0.3,0,0.6-0.2,0.7-0.5L136.7,64c0.1-0.2,0-0.5-0.1-0.7
				C136.5,63.2,136.2,63.1,136,63.1L136,63.1z"/>
		</g>
	</g>
</g>
<g id="Layer_6">
</g>
<g id="Layer_3">
	<path class="st5" d="M77.6,9.7c0,0-50.7,0-50.7,29.7c0,31,50.7,31,50.7,31s49.9,0,49.9-30.4C127.5,9.7,77.6,9.7,77.6,9.7z"/>
	<path class="st6" d="M144.2,47.7c0,0,12.2,53.4-36.1,80.2c-2.2,1.3-46,29.5-93.5-12.4c6.1,8.6,42.1,54.9,101.9,21.9
		C120.1,135.1,165.1,105.7,144.2,47.7z"/>
</g>
</svg>
